<mxfile host="app.diagrams.net" agent="Mozilla/5.0 (Windows NT 10.0; Win64; x64) AppleWebKit/537.36 (KHTML, like Gecko) Chrome/130.0.0.0 Safari/537.36" version="24.8.6">
  <diagram name="Page-1" id="rCeVg71NsI-TdJLnn23v">
    <mxGraphModel grid="1" page="1" gridSize="10" guides="1" tooltips="1" connect="1" arrows="1" fold="1" pageScale="1" pageWidth="1100" pageHeight="850" math="0" shadow="0">
      <root>
        <mxCell id="0" />
        <mxCell id="1" parent="0" />
        <mxCell id="nWv0fpgkIuM7f8dXb2Xq-1" value="" style="rounded=0;whiteSpace=wrap;html=1;" vertex="1" parent="1">
          <mxGeometry x="600" y="439" width="120" height="200" as="geometry" />
        </mxCell>
        <mxCell id="nWv0fpgkIuM7f8dXb2Xq-2" value="VpeRx" style="text;html=1;align=center;verticalAlign=middle;whiteSpace=wrap;rounded=0;" vertex="1" parent="1">
          <mxGeometry x="660" y="619" width="60" height="20" as="geometry" />
        </mxCell>
        <mxCell id="nWv0fpgkIuM7f8dXb2Xq-3" value="RX" style="text;html=1;align=center;verticalAlign=middle;whiteSpace=wrap;rounded=0;" vertex="1" parent="1">
          <mxGeometry x="630" y="419" width="60" height="20" as="geometry" />
        </mxCell>
        <mxCell id="nWv0fpgkIuM7f8dXb2Xq-4" value="vpeSerial" style="text;html=1;align=center;verticalAlign=middle;whiteSpace=wrap;rounded=0;" vertex="1" parent="1">
          <mxGeometry x="600" y="471.5" width="50" height="15" as="geometry" />
        </mxCell>
        <mxCell id="nWv0fpgkIuM7f8dXb2Xq-5" value="data" style="text;html=1;align=center;verticalAlign=middle;whiteSpace=wrap;rounded=0;" vertex="1" parent="1">
          <mxGeometry x="680" y="469" width="40" height="20" as="geometry" />
        </mxCell>
        <mxCell id="nWv0fpgkIuM7f8dXb2Xq-6" value="newDataEn" style="text;html=1;align=center;verticalAlign=middle;whiteSpace=wrap;rounded=0;" vertex="1" parent="1">
          <mxGeometry x="650" y="549" width="70" height="20" as="geometry" />
        </mxCell>
        <mxCell id="nWv0fpgkIuM7f8dXb2Xq-7" value="frameEndEn" style="text;html=1;align=center;verticalAlign=middle;whiteSpace=wrap;rounded=0;" vertex="1" parent="1">
          <mxGeometry x="650" y="589" width="70" height="20" as="geometry" />
        </mxCell>
        <mxCell id="nWv0fpgkIuM7f8dXb2Xq-8" value="" style="rounded=0;whiteSpace=wrap;html=1;" vertex="1" parent="1">
          <mxGeometry x="1040" y="120" width="140" height="160" as="geometry" />
        </mxCell>
        <mxCell id="nWv0fpgkIuM7f8dXb2Xq-9" value="TX" style="text;html=1;align=center;verticalAlign=middle;whiteSpace=wrap;rounded=0;" vertex="1" parent="1">
          <mxGeometry x="1080" y="100" width="60" height="20" as="geometry" />
        </mxCell>
        <mxCell id="nWv0fpgkIuM7f8dXb2Xq-10" value="clock" style="text;html=1;align=center;verticalAlign=middle;whiteSpace=wrap;rounded=0;" vertex="1" parent="1">
          <mxGeometry x="1040" y="230" width="50" height="20" as="geometry" />
        </mxCell>
        <mxCell id="nWv0fpgkIuM7f8dXb2Xq-11" value="reset" style="text;html=1;align=center;verticalAlign=middle;whiteSpace=wrap;rounded=0;" vertex="1" parent="1">
          <mxGeometry x="1040" y="250" width="50" height="20" as="geometry" />
        </mxCell>
        <mxCell id="nWv0fpgkIuM7f8dXb2Xq-12" value="VpeTransmitter" style="text;html=1;align=center;verticalAlign=middle;whiteSpace=wrap;rounded=0;" vertex="1" parent="1">
          <mxGeometry x="1092.5" y="250" width="85" height="30" as="geometry" />
        </mxCell>
        <mxCell id="nWv0fpgkIuM7f8dXb2Xq-13" value="t0En" style="text;html=1;align=center;verticalAlign=middle;whiteSpace=wrap;rounded=0;" vertex="1" parent="1">
          <mxGeometry x="1040" y="120" width="30" height="20" as="geometry" />
        </mxCell>
        <mxCell id="nWv0fpgkIuM7f8dXb2Xq-14" value="data" style="text;html=1;align=center;verticalAlign=middle;whiteSpace=wrap;rounded=0;" vertex="1" parent="1">
          <mxGeometry x="1040" y="140" width="30" height="10" as="geometry" />
        </mxCell>
        <mxCell id="nWv0fpgkIuM7f8dXb2Xq-15" value="txMode" style="text;html=1;align=center;verticalAlign=middle;whiteSpace=wrap;rounded=0;" vertex="1" parent="1">
          <mxGeometry x="1040" y="152.5" width="40" height="15" as="geometry" />
        </mxCell>
        <mxCell id="nWv0fpgkIuM7f8dXb2Xq-16" value="vpeSerial" style="text;html=1;align=center;verticalAlign=middle;whiteSpace=wrap;rounded=0;" vertex="1" parent="1">
          <mxGeometry x="1120" y="120" width="60" height="20" as="geometry" />
        </mxCell>
        <mxCell id="nWv0fpgkIuM7f8dXb2Xq-17" value="wordEndEn" style="text;html=1;align=center;verticalAlign=middle;whiteSpace=wrap;rounded=0;" vertex="1" parent="1">
          <mxGeometry x="1120" y="140" width="60" height="20" as="geometry" />
        </mxCell>
        <mxCell id="nWv0fpgkIuM7f8dXb2Xq-18" value="" style="rounded=0;whiteSpace=wrap;html=1;" vertex="1" parent="1">
          <mxGeometry x="1130" y="469" width="140" height="236" as="geometry" />
        </mxCell>
        <mxCell id="nWv0fpgkIuM7f8dXb2Xq-19" value="DISPLAY_DATA" style="text;html=1;align=center;verticalAlign=middle;whiteSpace=wrap;rounded=0;" vertex="1" parent="1">
          <mxGeometry x="1140" y="439" width="120" height="30" as="geometry" />
        </mxCell>
        <mxCell id="nWv0fpgkIuM7f8dXb2Xq-20" value="SevenSegmentDriver" style="text;html=1;align=center;verticalAlign=middle;whiteSpace=wrap;rounded=0;" vertex="1" parent="1">
          <mxGeometry x="1160" y="685" width="110" height="30" as="geometry" />
        </mxCell>
        <mxCell id="nWv0fpgkIuM7f8dXb2Xq-21" value="sevenSegs" style="text;html=1;align=center;verticalAlign=middle;whiteSpace=wrap;rounded=0;" vertex="1" parent="1">
          <mxGeometry x="1210" y="469" width="60" height="30" as="geometry" />
        </mxCell>
        <mxCell id="nWv0fpgkIuM7f8dXb2Xq-22" value="anodes" style="text;html=1;align=center;verticalAlign=middle;whiteSpace=wrap;rounded=0;" vertex="1" parent="1">
          <mxGeometry x="1210" y="521" width="60" height="30" as="geometry" />
        </mxCell>
        <mxCell id="nWv0fpgkIuM7f8dXb2Xq-23" value="digit3" style="text;html=1;align=center;verticalAlign=middle;whiteSpace=wrap;rounded=0;" vertex="1" parent="1">
          <mxGeometry x="1120" y="469" width="60" height="30" as="geometry" />
        </mxCell>
        <mxCell id="nWv0fpgkIuM7f8dXb2Xq-24" value="digit2" style="text;html=1;align=center;verticalAlign=middle;whiteSpace=wrap;rounded=0;" vertex="1" parent="1">
          <mxGeometry x="1120" y="491" width="60" height="30" as="geometry" />
        </mxCell>
        <mxCell id="nWv0fpgkIuM7f8dXb2Xq-25" value="digit1" style="text;html=1;align=center;verticalAlign=middle;whiteSpace=wrap;rounded=0;" vertex="1" parent="1">
          <mxGeometry x="1120" y="515" width="60" height="30" as="geometry" />
        </mxCell>
        <mxCell id="nWv0fpgkIuM7f8dXb2Xq-26" value="digit0" style="text;html=1;align=center;verticalAlign=middle;whiteSpace=wrap;rounded=0;" vertex="1" parent="1">
          <mxGeometry x="1120" y="535" width="60" height="30" as="geometry" />
        </mxCell>
        <mxCell id="nWv0fpgkIuM7f8dXb2Xq-27" value="blank3" style="text;html=1;align=center;verticalAlign=middle;whiteSpace=wrap;rounded=0;" vertex="1" parent="1">
          <mxGeometry x="1120" y="561" width="60" height="30" as="geometry" />
        </mxCell>
        <mxCell id="nWv0fpgkIuM7f8dXb2Xq-28" value="blank2" style="text;html=1;align=center;verticalAlign=middle;whiteSpace=wrap;rounded=0;" vertex="1" parent="1">
          <mxGeometry x="1120" y="585" width="60" height="30" as="geometry" />
        </mxCell>
        <mxCell id="nWv0fpgkIuM7f8dXb2Xq-29" value="blank1" style="text;html=1;align=center;verticalAlign=middle;whiteSpace=wrap;rounded=0;" vertex="1" parent="1">
          <mxGeometry x="1120" y="605" width="60" height="30" as="geometry" />
        </mxCell>
        <mxCell id="nWv0fpgkIuM7f8dXb2Xq-30" value="blank0" style="text;html=1;align=center;verticalAlign=middle;whiteSpace=wrap;rounded=0;" vertex="1" parent="1">
          <mxGeometry x="1120" y="625" width="60" height="30" as="geometry" />
        </mxCell>
        <mxCell id="nWv0fpgkIuM7f8dXb2Xq-31" value="clock" style="text;html=1;align=center;verticalAlign=middle;whiteSpace=wrap;rounded=0;" vertex="1" parent="1">
          <mxGeometry x="1120" y="645" width="60" height="30" as="geometry" />
        </mxCell>
        <mxCell id="nWv0fpgkIuM7f8dXb2Xq-32" value="reset" style="text;html=1;align=center;verticalAlign=middle;whiteSpace=wrap;rounded=0;" vertex="1" parent="1">
          <mxGeometry x="1120" y="665" width="60" height="30" as="geometry" />
        </mxCell>
        <mxCell id="nWv0fpgkIuM7f8dXb2Xq-33" value="" style="endArrow=none;html=1;rounded=0;strokeWidth=3;" edge="1" parent="1">
          <mxGeometry width="50" height="50" relative="1" as="geometry">
            <mxPoint x="960" y="529" as="sourcePoint" />
            <mxPoint x="1130" y="529.88" as="targetPoint" />
          </mxGeometry>
        </mxCell>
        <mxCell id="nWv0fpgkIuM7f8dXb2Xq-34" value="" style="endArrow=none;html=1;rounded=0;" edge="1" parent="1">
          <mxGeometry width="50" height="50" relative="1" as="geometry">
            <mxPoint x="1040" y="575.88" as="sourcePoint" />
            <mxPoint x="1130" y="575.88" as="targetPoint" />
          </mxGeometry>
        </mxCell>
        <mxCell id="nWv0fpgkIuM7f8dXb2Xq-35" value="" style="endArrow=none;html=1;rounded=0;" edge="1" parent="1">
          <mxGeometry width="50" height="50" relative="1" as="geometry">
            <mxPoint x="1040" y="599.88" as="sourcePoint" />
            <mxPoint x="1130" y="599.88" as="targetPoint" />
          </mxGeometry>
        </mxCell>
        <mxCell id="nWv0fpgkIuM7f8dXb2Xq-36" value="" style="endArrow=none;html=1;rounded=0;" edge="1" parent="1">
          <mxGeometry width="50" height="50" relative="1" as="geometry">
            <mxPoint x="1040" y="619.88" as="sourcePoint" />
            <mxPoint x="1130" y="619.88" as="targetPoint" />
          </mxGeometry>
        </mxCell>
        <mxCell id="nWv0fpgkIuM7f8dXb2Xq-37" value="" style="endArrow=none;html=1;rounded=0;" edge="1" parent="1">
          <mxGeometry width="50" height="50" relative="1" as="geometry">
            <mxPoint x="1040" y="639.88" as="sourcePoint" />
            <mxPoint x="1130" y="639.88" as="targetPoint" />
          </mxGeometry>
        </mxCell>
        <mxCell id="nWv0fpgkIuM7f8dXb2Xq-38" value="" style="endArrow=none;html=1;rounded=0;" edge="1" parent="1">
          <mxGeometry width="50" height="50" relative="1" as="geometry">
            <mxPoint x="1040" y="659.88" as="sourcePoint" />
            <mxPoint x="1130" y="659.88" as="targetPoint" />
          </mxGeometry>
        </mxCell>
        <mxCell id="nWv0fpgkIuM7f8dXb2Xq-39" value="" style="endArrow=none;html=1;rounded=0;" edge="1" parent="1">
          <mxGeometry width="50" height="50" relative="1" as="geometry">
            <mxPoint x="1040" y="679.88" as="sourcePoint" />
            <mxPoint x="1130" y="679.88" as="targetPoint" />
          </mxGeometry>
        </mxCell>
        <mxCell id="nWv0fpgkIuM7f8dXb2Xq-40" value="" style="endArrow=none;html=1;rounded=0;" edge="1" parent="1">
          <mxGeometry width="50" height="50" relative="1" as="geometry">
            <mxPoint x="1073" y="541" as="sourcePoint" />
            <mxPoint x="1083" y="521" as="targetPoint" />
          </mxGeometry>
        </mxCell>
        <mxCell id="nWv0fpgkIuM7f8dXb2Xq-41" value="4" style="text;html=1;align=center;verticalAlign=middle;whiteSpace=wrap;rounded=0;" vertex="1" parent="1">
          <mxGeometry x="1060" y="507" width="20" height="30" as="geometry" />
        </mxCell>
        <mxCell id="nWv0fpgkIuM7f8dXb2Xq-42" value="" style="endArrow=none;html=1;rounded=0;" edge="1" parent="1">
          <mxGeometry width="50" height="50" relative="1" as="geometry">
            <mxPoint x="1073" y="561" as="sourcePoint" />
            <mxPoint x="1083" y="541" as="targetPoint" />
          </mxGeometry>
        </mxCell>
        <mxCell id="nWv0fpgkIuM7f8dXb2Xq-43" value="4" style="text;html=1;align=center;verticalAlign=middle;whiteSpace=wrap;rounded=0;" vertex="1" parent="1">
          <mxGeometry x="1060" y="527" width="20" height="30" as="geometry" />
        </mxCell>
        <mxCell id="nWv0fpgkIuM7f8dXb2Xq-44" value="" style="endArrow=none;html=1;rounded=0;strokeWidth=3;" edge="1" parent="1">
          <mxGeometry width="50" height="50" relative="1" as="geometry">
            <mxPoint x="959" y="485" as="sourcePoint" />
            <mxPoint x="1130" y="485.88" as="targetPoint" />
          </mxGeometry>
        </mxCell>
        <mxCell id="nWv0fpgkIuM7f8dXb2Xq-45" value="" style="endArrow=none;html=1;rounded=0;strokeWidth=3;" edge="1" parent="1">
          <mxGeometry width="50" height="50" relative="1" as="geometry">
            <mxPoint x="960" y="506" as="sourcePoint" />
            <mxPoint x="1130" y="507" as="targetPoint" />
          </mxGeometry>
        </mxCell>
        <mxCell id="nWv0fpgkIuM7f8dXb2Xq-46" value="" style="endArrow=none;html=1;rounded=0;" edge="1" parent="1">
          <mxGeometry width="50" height="50" relative="1" as="geometry">
            <mxPoint x="1073" y="497" as="sourcePoint" />
            <mxPoint x="1083" y="477" as="targetPoint" />
          </mxGeometry>
        </mxCell>
        <mxCell id="nWv0fpgkIuM7f8dXb2Xq-47" value="4" style="text;html=1;align=center;verticalAlign=middle;whiteSpace=wrap;rounded=0;" vertex="1" parent="1">
          <mxGeometry x="1060" y="463" width="20" height="30" as="geometry" />
        </mxCell>
        <mxCell id="nWv0fpgkIuM7f8dXb2Xq-48" value="" style="endArrow=none;html=1;rounded=0;" edge="1" parent="1">
          <mxGeometry width="50" height="50" relative="1" as="geometry">
            <mxPoint x="1073" y="517" as="sourcePoint" />
            <mxPoint x="1083" y="497" as="targetPoint" />
          </mxGeometry>
        </mxCell>
        <mxCell id="nWv0fpgkIuM7f8dXb2Xq-49" value="4" style="text;html=1;align=center;verticalAlign=middle;whiteSpace=wrap;rounded=0;" vertex="1" parent="1">
          <mxGeometry x="1060" y="483" width="20" height="30" as="geometry" />
        </mxCell>
        <mxCell id="nWv0fpgkIuM7f8dXb2Xq-50" value="" style="verticalLabelPosition=bottom;shadow=0;dashed=0;align=center;html=1;verticalAlign=top;shape=mxgraph.electrical.abstract.dac;rounded=0;" vertex="1" parent="1">
          <mxGeometry x="1325" y="468" width="80" height="40" as="geometry" />
        </mxCell>
        <mxCell id="nWv0fpgkIuM7f8dXb2Xq-51" value="seg" style="text;html=1;align=center;verticalAlign=middle;whiteSpace=wrap;rounded=0;" vertex="1" parent="1">
          <mxGeometry x="1325" y="473" width="60" height="30" as="geometry" />
        </mxCell>
        <mxCell id="nWv0fpgkIuM7f8dXb2Xq-52" value="" style="verticalLabelPosition=bottom;shadow=0;dashed=0;align=center;html=1;verticalAlign=top;shape=mxgraph.electrical.abstract.dac;rounded=0;" vertex="1" parent="1">
          <mxGeometry x="1325" y="515" width="80" height="40" as="geometry" />
        </mxCell>
        <mxCell id="nWv0fpgkIuM7f8dXb2Xq-53" value="an" style="text;html=1;align=center;verticalAlign=middle;whiteSpace=wrap;rounded=0;" vertex="1" parent="1">
          <mxGeometry x="1325" y="520" width="60" height="30" as="geometry" />
        </mxCell>
        <mxCell id="nWv0fpgkIuM7f8dXb2Xq-54" value="" style="endArrow=none;html=1;rounded=0;strokeWidth=3;" edge="1" parent="1">
          <mxGeometry width="50" height="50" relative="1" as="geometry">
            <mxPoint x="1270" y="538" as="sourcePoint" />
            <mxPoint x="1326" y="538" as="targetPoint" />
          </mxGeometry>
        </mxCell>
        <mxCell id="nWv0fpgkIuM7f8dXb2Xq-55" value="" style="endArrow=none;html=1;rounded=0;" edge="1" parent="1">
          <mxGeometry width="50" height="50" relative="1" as="geometry">
            <mxPoint x="1298" y="547" as="sourcePoint" />
            <mxPoint x="1308" y="527" as="targetPoint" />
          </mxGeometry>
        </mxCell>
        <mxCell id="nWv0fpgkIuM7f8dXb2Xq-56" value="4" style="text;html=1;align=center;verticalAlign=middle;whiteSpace=wrap;rounded=0;" vertex="1" parent="1">
          <mxGeometry x="1285" y="513" width="20" height="30" as="geometry" />
        </mxCell>
        <mxCell id="nWv0fpgkIuM7f8dXb2Xq-57" value="" style="endArrow=none;html=1;rounded=0;strokeWidth=3;" edge="1" parent="1">
          <mxGeometry width="50" height="50" relative="1" as="geometry">
            <mxPoint x="1270" y="486" as="sourcePoint" />
            <mxPoint x="1326" y="486" as="targetPoint" />
          </mxGeometry>
        </mxCell>
        <mxCell id="nWv0fpgkIuM7f8dXb2Xq-58" value="" style="endArrow=none;html=1;rounded=0;" edge="1" parent="1">
          <mxGeometry width="50" height="50" relative="1" as="geometry">
            <mxPoint x="1298" y="495" as="sourcePoint" />
            <mxPoint x="1308" y="475" as="targetPoint" />
          </mxGeometry>
        </mxCell>
        <mxCell id="nWv0fpgkIuM7f8dXb2Xq-59" value="7" style="text;html=1;align=center;verticalAlign=middle;whiteSpace=wrap;rounded=0;" vertex="1" parent="1">
          <mxGeometry x="1285" y="461" width="20" height="30" as="geometry" />
        </mxCell>
        <mxCell id="nWv0fpgkIuM7f8dXb2Xq-60" value="" style="endArrow=none;html=1;rounded=0;strokeWidth=3;" edge="1" parent="1">
          <mxGeometry width="50" height="50" relative="1" as="geometry">
            <mxPoint x="960" y="550" as="sourcePoint" />
            <mxPoint x="1130" y="551" as="targetPoint" />
          </mxGeometry>
        </mxCell>
        <mxCell id="nWv0fpgkIuM7f8dXb2Xq-61" value="" style="verticalLabelPosition=bottom;shadow=0;dashed=0;align=center;html=1;verticalAlign=top;shape=mxgraph.electrical.abstract.dac;rounded=0;" vertex="1" parent="1">
          <mxGeometry x="40" y="440" width="80" height="40" as="geometry" />
        </mxCell>
        <mxCell id="nWv0fpgkIuM7f8dXb2Xq-62" value="JB_0" style="text;html=1;align=center;verticalAlign=middle;whiteSpace=wrap;rounded=0;" vertex="1" parent="1">
          <mxGeometry x="40" y="445" width="60" height="30" as="geometry" />
        </mxCell>
        <mxCell id="nWv0fpgkIuM7f8dXb2Xq-79" value="" style="endArrow=none;html=1;rounded=0;" edge="1" parent="1">
          <mxGeometry width="50" height="50" relative="1" as="geometry">
            <mxPoint x="120" y="460" as="sourcePoint" />
            <mxPoint x="600" y="480" as="targetPoint" />
            <Array as="points">
              <mxPoint x="220" y="460" />
              <mxPoint x="560" y="460" />
              <mxPoint x="560" y="480" />
            </Array>
          </mxGeometry>
        </mxCell>
        <mxCell id="nWv0fpgkIuM7f8dXb2Xq-80" value="" style="verticalLabelPosition=bottom;shadow=0;dashed=0;align=center;html=1;verticalAlign=top;shape=mxgraph.electrical.abstract.dac;rounded=0;" vertex="1" parent="1">
          <mxGeometry x="40" y="716" width="80" height="40" as="geometry" />
        </mxCell>
        <mxCell id="nWv0fpgkIuM7f8dXb2Xq-81" value="clk" style="text;html=1;align=center;verticalAlign=middle;whiteSpace=wrap;rounded=0;" vertex="1" parent="1">
          <mxGeometry x="40" y="721" width="60" height="30" as="geometry" />
        </mxCell>
        <mxCell id="nWv0fpgkIuM7f8dXb2Xq-82" value="" style="verticalLabelPosition=bottom;shadow=0;dashed=0;align=center;html=1;verticalAlign=top;shape=mxgraph.electrical.abstract.dac;rounded=0;" vertex="1" parent="1">
          <mxGeometry x="40" y="796" width="80" height="40" as="geometry" />
        </mxCell>
        <mxCell id="nWv0fpgkIuM7f8dXb2Xq-83" value="btnD" style="text;html=1;align=center;verticalAlign=middle;whiteSpace=wrap;rounded=0;" vertex="1" parent="1">
          <mxGeometry x="40" y="801" width="60" height="30" as="geometry" />
        </mxCell>
        <mxCell id="nWv0fpgkIuM7f8dXb2Xq-84" value="" style="endArrow=none;html=1;rounded=0;" edge="1" parent="1">
          <mxGeometry width="50" height="50" relative="1" as="geometry">
            <mxPoint x="120" y="736" as="sourcePoint" />
            <mxPoint x="160" y="736" as="targetPoint" />
          </mxGeometry>
        </mxCell>
        <mxCell id="nWv0fpgkIuM7f8dXb2Xq-85" value="clock" style="text;html=1;align=center;verticalAlign=middle;whiteSpace=wrap;rounded=0;" vertex="1" parent="1">
          <mxGeometry x="160" y="721" width="30" height="30" as="geometry" />
        </mxCell>
        <mxCell id="nWv0fpgkIuM7f8dXb2Xq-86" value="" style="endArrow=none;html=1;rounded=0;" edge="1" parent="1">
          <mxGeometry width="50" height="50" relative="1" as="geometry">
            <mxPoint x="120" y="816" as="sourcePoint" />
            <mxPoint x="160" y="816" as="targetPoint" />
          </mxGeometry>
        </mxCell>
        <mxCell id="nWv0fpgkIuM7f8dXb2Xq-87" value="reset" style="text;html=1;align=center;verticalAlign=middle;whiteSpace=wrap;rounded=0;" vertex="1" parent="1">
          <mxGeometry x="160" y="801" width="30" height="30" as="geometry" />
        </mxCell>
        <mxCell id="nWv0fpgkIuM7f8dXb2Xq-89" value="&#39;0&#39;" style="text;html=1;align=center;verticalAlign=middle;whiteSpace=wrap;rounded=0;" vertex="1" parent="1">
          <mxGeometry x="1020" y="565" width="20" height="25" as="geometry" />
        </mxCell>
        <mxCell id="nWv0fpgkIuM7f8dXb2Xq-90" value="&#39;0&#39;" style="text;html=1;align=center;verticalAlign=middle;whiteSpace=wrap;rounded=0;" vertex="1" parent="1">
          <mxGeometry x="1020" y="590" width="20" height="25" as="geometry" />
        </mxCell>
        <mxCell id="nWv0fpgkIuM7f8dXb2Xq-91" value="&#39;0&#39;" style="text;html=1;align=center;verticalAlign=middle;whiteSpace=wrap;rounded=0;" vertex="1" parent="1">
          <mxGeometry x="1020" y="609" width="20" height="25" as="geometry" />
        </mxCell>
        <mxCell id="nWv0fpgkIuM7f8dXb2Xq-92" value="&#39;0&#39;" style="text;html=1;align=center;verticalAlign=middle;whiteSpace=wrap;rounded=0;" vertex="1" parent="1">
          <mxGeometry x="1020" y="630" width="20" height="25" as="geometry" />
        </mxCell>
        <mxCell id="nWv0fpgkIuM7f8dXb2Xq-93" value="" style="rounded=0;whiteSpace=wrap;html=1;" vertex="1" parent="1">
          <mxGeometry x="840" y="439" width="120" height="241" as="geometry" />
        </mxCell>
        <mxCell id="nWv0fpgkIuM7f8dXb2Xq-95" value="DATA_SHIFT" style="text;html=1;align=center;verticalAlign=middle;whiteSpace=wrap;rounded=0;" vertex="1" parent="1">
          <mxGeometry x="865" y="420.25" width="70" height="17.5" as="geometry" />
        </mxCell>
        <mxCell id="nWv0fpgkIuM7f8dXb2Xq-96" value="" style="endArrow=none;html=1;rounded=0;strokeWidth=3;" edge="1" parent="1">
          <mxGeometry width="50" height="50" relative="1" as="geometry">
            <mxPoint x="720" y="480" as="sourcePoint" />
            <mxPoint x="840" y="480" as="targetPoint" />
          </mxGeometry>
        </mxCell>
        <mxCell id="nWv0fpgkIuM7f8dXb2Xq-97" value="" style="endArrow=none;html=1;rounded=0;strokeWidth=2;" edge="1" parent="1">
          <mxGeometry width="50" height="50" relative="1" as="geometry">
            <mxPoint x="780" y="493" as="sourcePoint" />
            <mxPoint x="790" y="463" as="targetPoint" />
          </mxGeometry>
        </mxCell>
        <mxCell id="nWv0fpgkIuM7f8dXb2Xq-98" value="8" style="text;html=1;align=center;verticalAlign=middle;whiteSpace=wrap;rounded=0;" vertex="1" parent="1">
          <mxGeometry x="770" y="463" width="20" height="13" as="geometry" />
        </mxCell>
        <mxCell id="nWv0fpgkIuM7f8dXb2Xq-99" value="" style="endArrow=none;html=1;rounded=0;" edge="1" parent="1">
          <mxGeometry width="50" height="50" relative="1" as="geometry">
            <mxPoint x="720" y="560.5" as="sourcePoint" />
            <mxPoint x="840" y="561" as="targetPoint" />
          </mxGeometry>
        </mxCell>
        <mxCell id="nWv0fpgkIuM7f8dXb2Xq-100" value="" style="endArrow=none;html=1;rounded=0;" edge="1" parent="1">
          <mxGeometry width="50" height="50" relative="1" as="geometry">
            <mxPoint x="720" y="599.75" as="sourcePoint" />
            <mxPoint x="840" y="600.25" as="targetPoint" />
          </mxGeometry>
        </mxCell>
        <mxCell id="nWv0fpgkIuM7f8dXb2Xq-101" value="clock" style="text;html=1;align=center;verticalAlign=middle;whiteSpace=wrap;rounded=0;" vertex="1" parent="1">
          <mxGeometry x="1030" y="639" width="60" height="30" as="geometry" />
        </mxCell>
        <mxCell id="nWv0fpgkIuM7f8dXb2Xq-102" value="reset" style="text;html=1;align=center;verticalAlign=middle;whiteSpace=wrap;rounded=0;" vertex="1" parent="1">
          <mxGeometry x="1030" y="659" width="60" height="30" as="geometry" />
        </mxCell>
        <mxCell id="nWv0fpgkIuM7f8dXb2Xq-103" value="" style="endArrow=none;html=1;rounded=0;" edge="1" parent="1">
          <mxGeometry width="50" height="50" relative="1" as="geometry">
            <mxPoint x="560" y="596" as="sourcePoint" />
            <mxPoint x="600" y="596" as="targetPoint" />
          </mxGeometry>
        </mxCell>
        <mxCell id="nWv0fpgkIuM7f8dXb2Xq-104" value="clock" style="text;html=1;align=center;verticalAlign=middle;whiteSpace=wrap;rounded=0;" vertex="1" parent="1">
          <mxGeometry x="530" y="580" width="30" height="30" as="geometry" />
        </mxCell>
        <mxCell id="nWv0fpgkIuM7f8dXb2Xq-105" value="" style="endArrow=none;html=1;rounded=0;" edge="1" parent="1">
          <mxGeometry width="50" height="50" relative="1" as="geometry">
            <mxPoint x="560" y="626" as="sourcePoint" />
            <mxPoint x="600" y="626" as="targetPoint" />
          </mxGeometry>
        </mxCell>
        <mxCell id="nWv0fpgkIuM7f8dXb2Xq-106" value="reset" style="text;html=1;align=center;verticalAlign=middle;whiteSpace=wrap;rounded=0;" vertex="1" parent="1">
          <mxGeometry x="530" y="610" width="30" height="30" as="geometry" />
        </mxCell>
        <mxCell id="nWv0fpgkIuM7f8dXb2Xq-107" value="clock" style="text;html=1;align=center;verticalAlign=middle;whiteSpace=wrap;rounded=0;" vertex="1" parent="1">
          <mxGeometry x="590" y="580" width="60" height="30" as="geometry" />
        </mxCell>
        <mxCell id="nWv0fpgkIuM7f8dXb2Xq-108" value="reset" style="text;html=1;align=center;verticalAlign=middle;whiteSpace=wrap;rounded=0;" vertex="1" parent="1">
          <mxGeometry x="590" y="609" width="60" height="30" as="geometry" />
        </mxCell>
        <mxCell id="nWv0fpgkIuM7f8dXb2Xq-111" value="" style="verticalLabelPosition=bottom;shadow=0;dashed=0;align=center;html=1;verticalAlign=top;shape=mxgraph.electrical.abstract.dac;rounded=0;" vertex="1" parent="1">
          <mxGeometry x="1380" y="120" width="80" height="40" as="geometry" />
        </mxCell>
        <mxCell id="nWv0fpgkIuM7f8dXb2Xq-112" value="JA_0" style="text;html=1;align=center;verticalAlign=middle;whiteSpace=wrap;rounded=0;" vertex="1" parent="1">
          <mxGeometry x="1380" y="125" width="60" height="30" as="geometry" />
        </mxCell>
        <mxCell id="nWv0fpgkIuM7f8dXb2Xq-113" value="" style="endArrow=none;html=1;rounded=0;" edge="1" parent="1">
          <mxGeometry width="50" height="50" relative="1" as="geometry">
            <mxPoint x="1180" y="135" as="sourcePoint" />
            <mxPoint x="1380" y="135" as="targetPoint" />
          </mxGeometry>
        </mxCell>
        <mxCell id="nWv0fpgkIuM7f8dXb2Xq-114" value="" style="verticalLabelPosition=bottom;shadow=0;dashed=0;align=center;html=1;verticalAlign=top;shape=mxgraph.electrical.abstract.dac;rounded=0;" vertex="1" parent="1">
          <mxGeometry x="40" y="10" width="80" height="40" as="geometry" />
        </mxCell>
        <mxCell id="nWv0fpgkIuM7f8dXb2Xq-115" value="sw" style="text;html=1;align=center;verticalAlign=middle;whiteSpace=wrap;rounded=0;" vertex="1" parent="1">
          <mxGeometry x="40" y="15" width="60" height="30" as="geometry" />
        </mxCell>
        <mxCell id="nWv0fpgkIuM7f8dXb2Xq-116" value="" style="endArrow=none;html=1;rounded=0;strokeWidth=3;" edge="1" parent="1" source="nWv0fpgkIuM7f8dXb2Xq-122">
          <mxGeometry width="50" height="50" relative="1" as="geometry">
            <mxPoint x="440" y="30" as="sourcePoint" />
            <mxPoint x="1320" y="30" as="targetPoint" />
          </mxGeometry>
        </mxCell>
        <mxCell id="nWv0fpgkIuM7f8dXb2Xq-117" value="" style="verticalLabelPosition=bottom;shadow=0;dashed=0;align=center;html=1;verticalAlign=top;shape=mxgraph.electrical.abstract.dac;rounded=0;" vertex="1" parent="1">
          <mxGeometry x="1320" y="10" width="80" height="40" as="geometry" />
        </mxCell>
        <mxCell id="nWv0fpgkIuM7f8dXb2Xq-118" value="led" style="text;html=1;align=center;verticalAlign=middle;whiteSpace=wrap;rounded=0;" vertex="1" parent="1">
          <mxGeometry x="1320" y="15" width="60" height="30" as="geometry" />
        </mxCell>
        <mxCell id="nWv0fpgkIuM7f8dXb2Xq-119" value="" style="endArrow=none;html=1;rounded=0;strokeWidth=2;" edge="1" parent="1">
          <mxGeometry width="50" height="50" relative="1" as="geometry">
            <mxPoint x="910" y="45" as="sourcePoint" />
            <mxPoint x="920" y="15" as="targetPoint" />
          </mxGeometry>
        </mxCell>
        <mxCell id="nWv0fpgkIuM7f8dXb2Xq-120" value="16" style="text;html=1;align=center;verticalAlign=middle;whiteSpace=wrap;rounded=0;" vertex="1" parent="1">
          <mxGeometry x="900" y="10" width="20" height="20" as="geometry" />
        </mxCell>
        <mxCell id="nWv0fpgkIuM7f8dXb2Xq-121" value="" style="endArrow=none;html=1;rounded=0;strokeWidth=3;" edge="1" parent="1">
          <mxGeometry width="50" height="50" relative="1" as="geometry">
            <mxPoint x="120" y="30" as="sourcePoint" />
            <mxPoint x="750" y="30" as="targetPoint" />
          </mxGeometry>
        </mxCell>
        <mxCell id="nWv0fpgkIuM7f8dXb2Xq-122" value="" style="ellipse;whiteSpace=wrap;html=1;aspect=fixed;fillColor=#000000;" vertex="1" parent="1">
          <mxGeometry x="750" y="25" width="10" height="10" as="geometry" />
        </mxCell>
        <mxCell id="nWv0fpgkIuM7f8dXb2Xq-138" value="" style="endArrow=none;html=1;rounded=0;" edge="1" parent="1">
          <mxGeometry width="50" height="50" relative="1" as="geometry">
            <mxPoint x="840" y="125" as="sourcePoint" />
            <mxPoint x="840" y="125" as="targetPoint" />
            <Array as="points">
              <mxPoint x="860" y="135" />
              <mxPoint x="860" y="155" />
              <mxPoint x="840" y="165" />
            </Array>
          </mxGeometry>
        </mxCell>
        <mxCell id="nWv0fpgkIuM7f8dXb2Xq-139" value="0" style="text;html=1;align=center;verticalAlign=middle;whiteSpace=wrap;rounded=0;" vertex="1" parent="1">
          <mxGeometry x="840" y="130" width="10" height="10" as="geometry" />
        </mxCell>
        <mxCell id="nWv0fpgkIuM7f8dXb2Xq-140" value="1" style="text;html=1;align=center;verticalAlign=middle;whiteSpace=wrap;rounded=0;" vertex="1" parent="1">
          <mxGeometry x="840" y="147.5" width="10" height="10" as="geometry" />
        </mxCell>
        <mxCell id="nWv0fpgkIuM7f8dXb2Xq-142" value="" style="endArrow=none;html=1;rounded=0;strokeWidth=3;" edge="1" parent="1">
          <mxGeometry width="50" height="50" relative="1" as="geometry">
            <mxPoint x="860" y="145" as="sourcePoint" />
            <mxPoint x="1040" y="145" as="targetPoint" />
          </mxGeometry>
        </mxCell>
        <mxCell id="nWv0fpgkIuM7f8dXb2Xq-144" value="" style="endArrow=none;html=1;rounded=0;strokeWidth=2;" edge="1" parent="1">
          <mxGeometry width="50" height="50" relative="1" as="geometry">
            <mxPoint x="940" y="160" as="sourcePoint" />
            <mxPoint x="950" y="130" as="targetPoint" />
          </mxGeometry>
        </mxCell>
        <mxCell id="nWv0fpgkIuM7f8dXb2Xq-145" value="32" style="text;html=1;align=center;verticalAlign=middle;whiteSpace=wrap;rounded=0;" vertex="1" parent="1">
          <mxGeometry x="930" y="125" width="20" height="20" as="geometry" />
        </mxCell>
        <mxCell id="nWv0fpgkIuM7f8dXb2Xq-147" value="" style="endArrow=none;html=1;rounded=0;strokeWidth=3;" edge="1" parent="1">
          <mxGeometry width="50" height="50" relative="1" as="geometry">
            <mxPoint x="800" y="90" as="sourcePoint" />
            <mxPoint x="755" y="31" as="targetPoint" />
            <Array as="points">
              <mxPoint x="780" y="80" />
              <mxPoint x="755" y="80" />
            </Array>
          </mxGeometry>
        </mxCell>
        <mxCell id="nWv0fpgkIuM7f8dXb2Xq-148" value="" style="endArrow=none;html=1;rounded=0;strokeWidth=3;" edge="1" parent="1">
          <mxGeometry width="50" height="50" relative="1" as="geometry">
            <mxPoint x="800" y="160" as="sourcePoint" />
            <mxPoint x="800" y="80" as="targetPoint" />
          </mxGeometry>
        </mxCell>
        <mxCell id="nWv0fpgkIuM7f8dXb2Xq-149" value="" style="endArrow=none;html=1;rounded=0;strokeWidth=3;" edge="1" parent="1">
          <mxGeometry width="50" height="50" relative="1" as="geometry">
            <mxPoint x="800" y="120" as="sourcePoint" />
            <mxPoint x="840" y="135" as="targetPoint" />
            <Array as="points">
              <mxPoint x="810" y="135" />
            </Array>
          </mxGeometry>
        </mxCell>
        <mxCell id="nWv0fpgkIuM7f8dXb2Xq-150" value="" style="endArrow=none;html=1;rounded=0;strokeWidth=3;" edge="1" parent="1">
          <mxGeometry width="50" height="50" relative="1" as="geometry">
            <mxPoint x="800" y="137.5" as="sourcePoint" />
            <mxPoint x="840" y="152.5" as="targetPoint" />
            <Array as="points">
              <mxPoint x="810" y="152.5" />
            </Array>
          </mxGeometry>
        </mxCell>
        <mxCell id="nWv0fpgkIuM7f8dXb2Xq-152" value="7:0" style="text;html=1;align=center;verticalAlign=middle;whiteSpace=wrap;rounded=0;" vertex="1" parent="1">
          <mxGeometry x="810" y="120" width="20" height="15" as="geometry" />
        </mxCell>
        <mxCell id="nWv0fpgkIuM7f8dXb2Xq-153" value="15:8" style="text;html=1;align=center;verticalAlign=middle;whiteSpace=wrap;rounded=0;" vertex="1" parent="1">
          <mxGeometry x="810" y="137.5" width="20" height="15" as="geometry" />
        </mxCell>
        <mxCell id="nWv0fpgkIuM7f8dXb2Xq-154" value="" style="rounded=0;whiteSpace=wrap;html=1;" vertex="1" parent="1">
          <mxGeometry x="600" y="120" width="120" height="160" as="geometry" />
        </mxCell>
        <mxCell id="nWv0fpgkIuM7f8dXb2Xq-155" value="TX_CONTROL" style="text;html=1;align=center;verticalAlign=middle;whiteSpace=wrap;rounded=0;" vertex="1" parent="1">
          <mxGeometry x="620" y="95" width="80" height="25" as="geometry" />
        </mxCell>
        <mxCell id="nWv0fpgkIuM7f8dXb2Xq-156" value="" style="endArrow=none;html=1;rounded=0;" edge="1" parent="1">
          <mxGeometry width="50" height="50" relative="1" as="geometry">
            <mxPoint x="720" y="320" as="sourcePoint" />
            <mxPoint x="1040" y="131" as="targetPoint" />
            <Array as="points">
              <mxPoint x="840" y="320" />
              <mxPoint x="840" y="200" />
              <mxPoint x="980" y="200" />
              <mxPoint x="980" y="131" />
            </Array>
          </mxGeometry>
        </mxCell>
        <mxCell id="nWv0fpgkIuM7f8dXb2Xq-157" value="" style="endArrow=none;html=1;rounded=0;" edge="1" parent="1">
          <mxGeometry width="50" height="50" relative="1" as="geometry">
            <mxPoint x="720" y="230" as="sourcePoint" />
            <mxPoint x="1040" y="161" as="targetPoint" />
            <Array as="points">
              <mxPoint x="990" y="230" />
              <mxPoint x="990" y="161" />
            </Array>
          </mxGeometry>
        </mxCell>
        <mxCell id="nWv0fpgkIuM7f8dXb2Xq-158" value="" style="endArrow=none;html=1;rounded=0;" edge="1" parent="1">
          <mxGeometry width="50" height="50" relative="1" as="geometry">
            <mxPoint x="1180" y="152.5" as="sourcePoint" />
            <mxPoint x="600" y="153" as="targetPoint" />
            <Array as="points">
              <mxPoint x="1220" y="153" />
              <mxPoint x="1220" y="100" />
              <mxPoint x="590" y="100" />
              <mxPoint x="590" y="153" />
            </Array>
          </mxGeometry>
        </mxCell>
        <mxCell id="nWv0fpgkIuM7f8dXb2Xq-159" value="" style="endArrow=none;html=1;rounded=0;" edge="1" parent="1">
          <mxGeometry width="50" height="50" relative="1" as="geometry">
            <mxPoint x="720" y="180" as="sourcePoint" />
            <mxPoint x="850" y="160" as="targetPoint" />
            <Array as="points">
              <mxPoint x="850" y="180" />
            </Array>
          </mxGeometry>
        </mxCell>
        <mxCell id="nWv0fpgkIuM7f8dXb2Xq-160" value="" style="endArrow=none;html=1;rounded=0;" edge="1" parent="1">
          <mxGeometry width="50" height="50" relative="1" as="geometry">
            <mxPoint x="1000" y="236" as="sourcePoint" />
            <mxPoint x="1040" y="236" as="targetPoint" />
          </mxGeometry>
        </mxCell>
        <mxCell id="nWv0fpgkIuM7f8dXb2Xq-161" value="clock" style="text;html=1;align=center;verticalAlign=middle;whiteSpace=wrap;rounded=0;" vertex="1" parent="1">
          <mxGeometry x="970" y="220" width="30" height="30" as="geometry" />
        </mxCell>
        <mxCell id="nWv0fpgkIuM7f8dXb2Xq-162" value="" style="endArrow=none;html=1;rounded=0;" edge="1" parent="1">
          <mxGeometry width="50" height="50" relative="1" as="geometry">
            <mxPoint x="1000" y="266" as="sourcePoint" />
            <mxPoint x="1040" y="266" as="targetPoint" />
          </mxGeometry>
        </mxCell>
        <mxCell id="nWv0fpgkIuM7f8dXb2Xq-163" value="reset" style="text;html=1;align=center;verticalAlign=middle;whiteSpace=wrap;rounded=0;" vertex="1" parent="1">
          <mxGeometry x="970" y="250" width="30" height="30" as="geometry" />
        </mxCell>
        <mxCell id="nWv0fpgkIuM7f8dXb2Xq-164" value="" style="endArrow=none;html=1;rounded=0;" edge="1" parent="1">
          <mxGeometry width="50" height="50" relative="1" as="geometry">
            <mxPoint x="560" y="236" as="sourcePoint" />
            <mxPoint x="600" y="236" as="targetPoint" />
          </mxGeometry>
        </mxCell>
        <mxCell id="nWv0fpgkIuM7f8dXb2Xq-165" value="clock" style="text;html=1;align=center;verticalAlign=middle;whiteSpace=wrap;rounded=0;" vertex="1" parent="1">
          <mxGeometry x="530" y="220" width="30" height="30" as="geometry" />
        </mxCell>
        <mxCell id="nWv0fpgkIuM7f8dXb2Xq-166" value="" style="endArrow=none;html=1;rounded=0;" edge="1" parent="1">
          <mxGeometry width="50" height="50" relative="1" as="geometry">
            <mxPoint x="560" y="266" as="sourcePoint" />
            <mxPoint x="600" y="266" as="targetPoint" />
          </mxGeometry>
        </mxCell>
        <mxCell id="nWv0fpgkIuM7f8dXb2Xq-167" value="reset" style="text;html=1;align=center;verticalAlign=middle;whiteSpace=wrap;rounded=0;" vertex="1" parent="1">
          <mxGeometry x="530" y="250" width="30" height="30" as="geometry" />
        </mxCell>
        <mxCell id="nWv0fpgkIuM7f8dXb2Xq-168" value="" style="endArrow=none;html=1;rounded=0;" edge="1" parent="1">
          <mxGeometry width="50" height="50" relative="1" as="geometry">
            <mxPoint x="800" y="636" as="sourcePoint" />
            <mxPoint x="840" y="636" as="targetPoint" />
          </mxGeometry>
        </mxCell>
        <mxCell id="nWv0fpgkIuM7f8dXb2Xq-169" value="clock" style="text;html=1;align=center;verticalAlign=middle;whiteSpace=wrap;rounded=0;" vertex="1" parent="1">
          <mxGeometry x="770" y="620" width="30" height="30" as="geometry" />
        </mxCell>
        <mxCell id="nWv0fpgkIuM7f8dXb2Xq-170" value="" style="endArrow=none;html=1;rounded=0;" edge="1" parent="1">
          <mxGeometry width="50" height="50" relative="1" as="geometry">
            <mxPoint x="800" y="666" as="sourcePoint" />
            <mxPoint x="840" y="666" as="targetPoint" />
          </mxGeometry>
        </mxCell>
        <mxCell id="nWv0fpgkIuM7f8dXb2Xq-171" value="reset" style="text;html=1;align=center;verticalAlign=middle;whiteSpace=wrap;rounded=0;" vertex="1" parent="1">
          <mxGeometry x="770" y="650" width="30" height="30" as="geometry" />
        </mxCell>
        <mxCell id="nWv0fpgkIuM7f8dXb2Xq-172" value="" style="rounded=0;whiteSpace=wrap;html=1;" vertex="1" parent="1">
          <mxGeometry x="190" y="120" width="120" height="80" as="geometry" />
        </mxCell>
        <mxCell id="nWv0fpgkIuM7f8dXb2Xq-173" value="" style="endArrow=none;html=1;rounded=0;" edge="1" parent="1">
          <mxGeometry width="50" height="50" relative="1" as="geometry">
            <mxPoint x="150" y="161" as="sourcePoint" />
            <mxPoint x="190" y="161" as="targetPoint" />
          </mxGeometry>
        </mxCell>
        <mxCell id="nWv0fpgkIuM7f8dXb2Xq-174" value="clock" style="text;html=1;align=center;verticalAlign=middle;whiteSpace=wrap;rounded=0;" vertex="1" parent="1">
          <mxGeometry x="120" y="145" width="30" height="30" as="geometry" />
        </mxCell>
        <mxCell id="nWv0fpgkIuM7f8dXb2Xq-175" value="" style="endArrow=none;html=1;rounded=0;" edge="1" parent="1">
          <mxGeometry width="50" height="50" relative="1" as="geometry">
            <mxPoint x="150" y="191" as="sourcePoint" />
            <mxPoint x="190" y="191" as="targetPoint" />
          </mxGeometry>
        </mxCell>
        <mxCell id="nWv0fpgkIuM7f8dXb2Xq-176" value="reset" style="text;html=1;align=center;verticalAlign=middle;whiteSpace=wrap;rounded=0;" vertex="1" parent="1">
          <mxGeometry x="120" y="175" width="30" height="30" as="geometry" />
        </mxCell>
        <mxCell id="nWv0fpgkIuM7f8dXb2Xq-177" value="" style="endArrow=none;html=1;rounded=0;" edge="1" parent="1">
          <mxGeometry width="50" height="50" relative="1" as="geometry">
            <mxPoint x="310" y="180" as="sourcePoint" />
            <mxPoint x="390" y="180" as="targetPoint" />
          </mxGeometry>
        </mxCell>
        <mxCell id="nWv0fpgkIuM7f8dXb2Xq-179" value="sendBtn" style="text;html=1;align=center;verticalAlign=middle;whiteSpace=wrap;rounded=0;" vertex="1" parent="1">
          <mxGeometry x="310" y="167.5" width="70" height="15" as="geometry" />
        </mxCell>
        <mxCell id="nWv0fpgkIuM7f8dXb2Xq-186" value="" style="rounded=0;whiteSpace=wrap;html=1;" vertex="1" parent="1">
          <mxGeometry x="390" y="167.5" width="100" height="120" as="geometry" />
        </mxCell>
        <mxCell id="nWv0fpgkIuM7f8dXb2Xq-187" value="LevelDetector" style="text;html=1;align=center;verticalAlign=middle;whiteSpace=wrap;rounded=0;" vertex="1" parent="1">
          <mxGeometry x="410" y="267.5" width="80" height="20" as="geometry" />
        </mxCell>
        <mxCell id="nWv0fpgkIuM7f8dXb2Xq-188" value="clock" style="text;html=1;align=center;verticalAlign=middle;whiteSpace=wrap;rounded=0;" vertex="1" parent="1">
          <mxGeometry x="390" y="237.5" width="50" height="20" as="geometry" />
        </mxCell>
        <mxCell id="nWv0fpgkIuM7f8dXb2Xq-189" value="reset" style="text;html=1;align=center;verticalAlign=middle;whiteSpace=wrap;rounded=0;" vertex="1" parent="1">
          <mxGeometry x="390" y="257.5" width="50" height="20" as="geometry" />
        </mxCell>
        <mxCell id="nWv0fpgkIuM7f8dXb2Xq-190" value="trigger" style="text;html=1;align=center;verticalAlign=middle;whiteSpace=wrap;rounded=0;" vertex="1" parent="1">
          <mxGeometry x="390" y="167.5" width="35" height="20" as="geometry" />
        </mxCell>
        <mxCell id="nWv0fpgkIuM7f8dXb2Xq-191" value="pulseOut" style="text;html=1;align=center;verticalAlign=middle;whiteSpace=wrap;rounded=0;" vertex="1" parent="1">
          <mxGeometry x="430" y="167.5" width="60" height="20" as="geometry" />
        </mxCell>
        <mxCell id="nWv0fpgkIuM7f8dXb2Xq-192" value="" style="endArrow=none;html=1;rounded=0;" edge="1" parent="1">
          <mxGeometry width="50" height="50" relative="1" as="geometry">
            <mxPoint x="350" y="246" as="sourcePoint" />
            <mxPoint x="390" y="246" as="targetPoint" />
          </mxGeometry>
        </mxCell>
        <mxCell id="nWv0fpgkIuM7f8dXb2Xq-193" value="clock" style="text;html=1;align=center;verticalAlign=middle;whiteSpace=wrap;rounded=0;" vertex="1" parent="1">
          <mxGeometry x="320" y="230" width="30" height="30" as="geometry" />
        </mxCell>
        <mxCell id="nWv0fpgkIuM7f8dXb2Xq-194" value="" style="endArrow=none;html=1;rounded=0;" edge="1" parent="1">
          <mxGeometry width="50" height="50" relative="1" as="geometry">
            <mxPoint x="350" y="276" as="sourcePoint" />
            <mxPoint x="390" y="276" as="targetPoint" />
          </mxGeometry>
        </mxCell>
        <mxCell id="nWv0fpgkIuM7f8dXb2Xq-195" value="reset" style="text;html=1;align=center;verticalAlign=middle;whiteSpace=wrap;rounded=0;" vertex="1" parent="1">
          <mxGeometry x="320" y="260" width="30" height="30" as="geometry" />
        </mxCell>
        <mxCell id="nWv0fpgkIuM7f8dXb2Xq-196" value="DEBOUNCE_SEND" style="text;html=1;align=center;verticalAlign=middle;whiteSpace=wrap;rounded=0;" vertex="1" parent="1">
          <mxGeometry x="205" y="90" width="90" height="30" as="geometry" />
        </mxCell>
        <mxCell id="nWv0fpgkIuM7f8dXb2Xq-197" value="DETECT_SEND" style="text;html=1;align=center;verticalAlign=middle;whiteSpace=wrap;rounded=0;" vertex="1" parent="1">
          <mxGeometry x="400" y="137.5" width="80" height="30" as="geometry" />
        </mxCell>
        <mxCell id="nWv0fpgkIuM7f8dXb2Xq-199" value="" style="endArrow=none;html=1;rounded=0;" edge="1" parent="1">
          <mxGeometry width="50" height="50" relative="1" as="geometry">
            <mxPoint x="490" y="180" as="sourcePoint" />
            <mxPoint x="600" y="180" as="targetPoint" />
          </mxGeometry>
        </mxCell>
        <mxCell id="nWv0fpgkIuM7f8dXb2Xq-201" value="sendEn" style="text;html=1;align=center;verticalAlign=middle;whiteSpace=wrap;rounded=0;" vertex="1" parent="1">
          <mxGeometry x="515" y="167.5" width="70" height="15" as="geometry" />
        </mxCell>
        <mxCell id="nWv0fpgkIuM7f8dXb2Xq-202" value="" style="verticalLabelPosition=bottom;shadow=0;dashed=0;align=center;html=1;verticalAlign=top;shape=mxgraph.electrical.abstract.dac;rounded=0;" vertex="1" parent="1">
          <mxGeometry x="40" y="120" width="80" height="40" as="geometry" />
        </mxCell>
        <mxCell id="nWv0fpgkIuM7f8dXb2Xq-203" value="btnU" style="text;html=1;align=center;verticalAlign=middle;whiteSpace=wrap;rounded=0;" vertex="1" parent="1">
          <mxGeometry x="40" y="125" width="60" height="30" as="geometry" />
        </mxCell>
        <mxCell id="nWv0fpgkIuM7f8dXb2Xq-204" value="" style="endArrow=none;html=1;rounded=0;" edge="1" parent="1">
          <mxGeometry width="50" height="50" relative="1" as="geometry">
            <mxPoint x="120" y="140" as="sourcePoint" />
            <mxPoint x="190" y="140" as="targetPoint" />
          </mxGeometry>
        </mxCell>
        <mxCell id="fBRvVkhdvN3_G7QPQmRY-1" value="switchSelect" style="text;html=1;align=center;verticalAlign=middle;whiteSpace=wrap;rounded=0;" vertex="1" parent="1">
          <mxGeometry x="740" y="157.5" width="80" height="25" as="geometry" />
        </mxCell>
        <mxCell id="UnyGLoo2kTJick4nAQ_k-1" value="" style="rounded=0;whiteSpace=wrap;html=1;" vertex="1" parent="1">
          <mxGeometry x="600" y="305" width="120" height="60" as="geometry" />
        </mxCell>
        <mxCell id="UnyGLoo2kTJick4nAQ_k-2" value="T0_GENERATOR" style="text;html=1;align=center;verticalAlign=middle;whiteSpace=wrap;rounded=0;" vertex="1" parent="1">
          <mxGeometry x="610" y="280" width="100" height="30" as="geometry" />
        </mxCell>
        <mxCell id="UnyGLoo2kTJick4nAQ_k-3" value="clock" style="text;html=1;align=center;verticalAlign=middle;whiteSpace=wrap;rounded=0;" vertex="1" parent="1">
          <mxGeometry x="510" y="305" width="50" height="20" as="geometry" />
        </mxCell>
        <mxCell id="UnyGLoo2kTJick4nAQ_k-4" value="" style="endArrow=none;html=1;rounded=0;entryX=0;entryY=0.5;entryDx=0;entryDy=0;" edge="1" parent="1">
          <mxGeometry width="50" height="50" relative="1" as="geometry">
            <mxPoint x="550" y="315" as="sourcePoint" />
            <mxPoint x="600" y="315" as="targetPoint" />
          </mxGeometry>
        </mxCell>
        <mxCell id="UnyGLoo2kTJick4nAQ_k-5" value="reset" style="text;html=1;align=center;verticalAlign=middle;whiteSpace=wrap;rounded=0;" vertex="1" parent="1">
          <mxGeometry x="510" y="325" width="50" height="20" as="geometry" />
        </mxCell>
        <mxCell id="UnyGLoo2kTJick4nAQ_k-6" value="" style="endArrow=none;html=1;rounded=0;entryX=0;entryY=0.5;entryDx=0;entryDy=0;" edge="1" parent="1">
          <mxGeometry width="50" height="50" relative="1" as="geometry">
            <mxPoint x="550" y="335" as="sourcePoint" />
            <mxPoint x="600" y="335" as="targetPoint" />
          </mxGeometry>
        </mxCell>
        <mxCell id="UnyGLoo2kTJick4nAQ_k-7" value="txData" style="text;html=1;align=center;verticalAlign=middle;whiteSpace=wrap;rounded=0;" vertex="1" parent="1">
          <mxGeometry x="875" y="125" width="60" height="20" as="geometry" />
        </mxCell>
        <mxCell id="UnyGLoo2kTJick4nAQ_k-8" value="rxData" style="text;html=1;align=center;verticalAlign=middle;whiteSpace=wrap;rounded=0;" vertex="1" parent="1">
          <mxGeometry x="720" y="459.5" width="60" height="20" as="geometry" />
        </mxCell>
      </root>
    </mxGraphModel>
  </diagram>
</mxfile>
